<svg width="1000" height="1002" viewBox="0 0 1000 1002" fill="none" xmlns="http://www.w3.org/2000/svg">
<path d="M638.502 538.21C638.502 572.838 628.223 606.688 608.964 635.48C589.706 664.271 562.333 686.711 530.307 699.961C498.282 713.212 463.043 716.677 429.046 709.92C395.049 703.162 363.821 686.485 339.312 661.998C314.803 637.51 298.114 606.312 291.355 572.349C284.596 538.386 288.07 503.184 301.339 471.193C314.608 439.203 337.075 411.862 365.899 392.627C394.723 373.393 428.61 363.13 463.273 363.135C509.749 363.142 554.319 381.591 587.18 414.423C620.041 447.255 638.502 491.782 638.502 538.21" fill="#187DFF"/>
<path d="M464.27 257.066C475.729 257.062 487.178 257.758 498.552 259.151L529.771 5.16007C507.439 2.38716 484.958 0.99481 462.454 0.99096C375.928 0.856245 290.659 21.6733 213.948 61.6596L333.431 289.201C373.753 268.026 418.636 256.996 464.189 257.066" fill="#187DFF"/>
<path d="M965.539 348.704L727.331 438.719C747.434 492.092 750.911 550.29 737.303 605.673L984.482 666.693C1010.37 561.208 1003.75 450.372 965.512 348.704" fill="#187DFF"/>
<path d="M695.075 378.73L904.991 234.3C843.357 144.677 756.016 75.782 654.452 36.6739L563.532 275.396C616.856 295.754 662.749 331.783 695.156 378.73" fill="#187DFF"/>
<path d="M156.201 191.496L276.823 327.777C245.944 355.083 221.45 388.834 205.073 426.642C188.696 464.45 180.836 505.392 182.05 546.57C183.265 587.748 193.523 628.157 212.099 664.936C230.675 701.716 257.116 733.968 289.549 759.411C321.983 784.854 359.618 802.865 399.791 812.17C439.963 821.476 481.692 821.848 522.025 813.261C562.358 804.674 600.308 787.337 633.192 762.477C666.076 737.618 693.089 705.843 712.32 669.4L844.324 738.488L873.456 753.757C841.818 813.786 797.359 866.134 743.227 907.098C689.094 948.062 626.61 976.64 560.197 990.809C493.784 1004.98 425.065 1004.39 358.904 989.094C292.743 973.795 230.756 944.156 177.33 902.276C123.905 860.395 80.3468 807.296 49.7384 746.737C19.13 686.178 2.21948 619.638 0.20367 551.827C-1.81215 484.016 11.116 416.591 38.0732 354.324C65.0303 292.057 105.358 236.47 156.201 191.496V191.496Z" fill="#111111"/>
</svg>
